Coordinates
version=1
nRows=6
nColumns=36
inDegrees=yes

Units are S.I. units (second, meters, Newtons, ...)
If the header above contains a line with 'inDegrees', this indicates whether rotational values are in degrees (yes) or radians (no).

endheader
time	pelvis_tilt	pelvis_list	pelvis_rotation	pelvis_tx	pelvis_ty	pelvis_tz	hip_flexion_r	hip_adduction_r	hip_rotation_r	knee_angle_r	knee_angle_r_beta	ankle_angle_r	subtalar_angle_r	mtp_angle_r	hip_flexion_l	hip_adduction_l	hip_rotation_l	knee_angle_l	knee_angle_l_beta	ankle_angle_l	subtalar_angle_l	mtp_angle_l	lumbar_extension	lumbar_bending	lumbar_rotation	arm_flex_r	arm_add_r	arm_rot_r	elbow_flex_r	pro_sup_r	arm_flex_l	arm_add_l	arm_rot_l	elbow_flex_l	pro_sup_l
      1.12000000	    -10.31310433	      2.76545626	     -1.30239651	     -0.75162778	      1.35779757	     -0.56472521	     24.64381500	     -1.86782921	      3.12041579	     44.49295970	      0.77654864	    -27.47770201	    -18.95269364	     -5.67745633	     22.22051622	     -1.41069185	     -4.26842230	     47.73946320	      0.83321082	    -26.46563058	    -13.07225593	     -5.67745633	     -6.40298750	     -0.97538992	     -1.57498712	     74.12785317	    -24.57462272	     34.45300334	     87.51484807	    107.05867621	     77.38372693	    -24.39059330	     25.07363918	     84.39831736	    110.58680955
      1.13000000	    -10.21769392	      2.93671349	     -0.85793085	     -0.74331321	      1.36102188	     -0.56481422	     25.42457166	     -2.32007438	      2.95767287	     42.80848629	      0.74714903	    -27.03841083	    -19.12923962	     -5.69874223	     23.76745016	     -1.30020733	     -4.04112590	     48.45078473	      0.84562572	    -25.91411488	    -13.60161449	     -5.69874223	     -7.00891226	     -1.24037579	     -2.11737196	     73.96746629	    -26.28683858	     34.97730643	     87.55428095	    107.15314686	     77.20680213	    -25.98439525	     25.22641022	     84.30078307	    110.61210923
      1.14000000	    -10.06935409	      3.26974687	     -0.49197127	     -0.73506009	      1.36345668	     -0.56495227	     25.96388706	     -2.89890261	      3.11973677	     40.61703659	      0.70890102	    -26.73261660	    -19.17026471	     -5.71051886	     25.11366913	     -1.01247543	     -3.89556495	     48.58638585	      0.84799240	    -25.43844006	    -13.76333339	     -5.71051886	     -7.70081174	     -1.68514577	     -2.60114208	     73.67189676	    -28.00667789	     35.47365583	     87.44563539	    107.19977342	     77.03715125	    -27.45453641	     25.10297922	     83.95922649	    110.57672506
      1.15000000	     -9.77462350	      3.33566905	      0.01169718	     -0.72683515	      1.36520941	     -0.56549073	     26.11886053	     -3.34002101	      2.88449022	     37.96237244	      0.66256839	    -26.69676268	    -19.02511936	     -5.73975848	     26.25697263	     -0.89704187	     -3.41543212	     48.38019830	      0.84439375	    -24.32011670	    -13.43527062	     -5.73975848	     -8.68002782	     -1.75420073	     -3.13928488	     73.81338650	    -30.21863286	     36.82058663	     87.73731363	    107.29181483	     77.05353035	    -29.14017387	     25.51338027	     83.64172714	    110.54090661
      1.16000000	     -9.48303326	      3.48191443	      0.39323335	     -0.71858999	      1.36595337	     -0.56569637	     26.23553252	     -3.77533840	      2.79468876	     35.18959821	      0.61417435	    -26.82595419	    -19.26622276	     -5.82412467	     27.22826601	     -0.81046810	     -3.20752556	     47.68130556	      0.83219577	    -22.57838420	    -12.21990363	     -5.82412467	     -9.62520357	     -1.92756684	     -3.60719416	     73.91796654	    -32.30777716	     38.12941143	     87.81470366	    107.12541567	     77.09835846	    -30.93615517	     25.97726464	     83.09567359	    110.26884318
      1.17000000	     -9.40107706	      3.71622352	      0.78585054	     -0.71011250	      1.36542945	     -0.56590530	     26.54553170	     -4.33078394	      2.69098079	     32.46259569	      0.56657918	    -26.68197581	    -19.16766419	     -5.83444185	     28.26399870	     -0.55257878	     -3.10233135	     46.49922201	      0.81156452	    -21.77470770	    -12.34334545	     -5.83444185	    -10.23984155	     -2.20374897	     -4.11287861	     73.49824506	    -34.18537481	     38.72266648	     87.93674932	    107.13559574	     76.73458490	    -32.71554883	     26.09338546	     82.52376878	    110.19515687
